<svg xmlns="http://www.w3.org/2000/svg" viewBox="0 0 420 200" width="420" height="200" role="img" aria-label="jm">
  <g transform="translate(30 30) scale(1.4)">
  <rect x="12" y="16" width="22" height="8" rx="4" fill="#5aa2ea"/>
  <rect x="12" y="28" width="14" height="8" rx="4" fill="#f0eee8"/>
  <rect x="34" y="28" width="20" height="8" rx="4" fill="#f0eee8"/>
  <rect x="12" y="40" width="30" height="8" rx="4" fill="#f0eee8"/>
  <rect x="50" y="40" width="16" height="8" rx="4" fill="#f0eee8"/>
  <rect x="12" y="52" width="18" height="8" rx="4" fill="#f0eee8"/>
  <rect x="38" y="52" width="40" height="8" rx="4" fill="#f0eee8"/>
  <rect x="12" y="64" width="44" height="8" rx="4" fill="#f0eee8"/>
  <rect x="64" y="64" width="24" height="8" rx="4" fill="#f0eee8"/>
  <rect x="12" y="76" width="24" height="8" rx="4" fill="#f0eee8"/>
  <rect x="44" y="76" width="44" height="8" rx="4" fill="#f0eee8"/>
  </g>
  <text x="200" y="132" font-family="JetBrains Mono, JetBrainsMono Nerd Font, SFMono-Regular, Menlo, Consolas, monospace" font-weight="700" font-size="96" fill="#f0eee8">jm</text>
</svg>
