<svg xmlns="http://www.w3.org/2000/svg" viewBox="0 0 100 100" width="100" height="100"><path d="M50 7.129 C50.726 6.743 51.453 6.358 52.179 5.972 C63.216 0.111 76.83 6.119 79.939 18.223 C80.064 18.711 80.189 19.198 80.314 19.686 C81.101 19.927 81.887 20.167 82.673 20.408 C94.622 24.069 100 37.943 93.64 48.7 C93.383 49.133 93.127 49.567 92.871 50 C93.257 50.726 93.642 51.453 94.028 52.179 C99.889 63.216 93.881 76.83 81.777 79.939 C81.289 80.064 80.802 80.189 80.314 80.314 C80.073 81.101 79.833 81.887 79.592 82.673 C75.931 94.622 62.057 100 51.3 93.64 C50.867 93.383 50.433 93.127 50 92.871 C49.274 93.257 48.547 93.642 47.821 94.028 C36.784 99.889 23.17 93.881 20.061 81.777 C19.936 81.289 19.811 80.802 19.686 80.314 C18.899 80.073 18.113 79.833 17.327 79.592 C5.378 75.931 0 62.057 6.36 51.3 C6.617 50.867 6.873 50.433 7.129 50 C6.743 49.274 6.358 48.547 5.972 47.821 C0.111 36.784 6.119 23.17 18.223 20.061 C18.711 19.936 19.198 19.811 19.686 19.686 C19.927 18.899 20.167 18.113 20.408 17.327 C24.069 5.378 37.943 0 48.7 6.36 C49.133 6.617 49.567 6.873 50 7.129 Z"/></svg>
